<?xml version="1.0" encoding="UTF-8"?>
<svg version="1.1" xmlns="http://www.w3.org/2000/svg" width="309" height="341">
<path d="M0 0 C1.74110855 -0.00571509 3.48221336 -0.01268371 5.22331238 -0.02079773 C9.91560366 -0.03861904 14.6077068 -0.03758162 19.30002165 -0.03185534 C23.23354814 -0.02874728 27.16703934 -0.03487386 31.10056078 -0.04089409 C40.3885227 -0.05490166 49.67639255 -0.05340966 58.96435547 -0.04199219 C68.5103 -0.03051608 78.0559634 -0.04458678 87.60187089 -0.07138866 C95.83161869 -0.09362042 104.06127871 -0.10016622 112.29105437 -0.09431225 C117.19140273 -0.09095914 122.09157099 -0.09324729 126.99189377 -0.11056328 C131.60337432 -0.12615002 136.21444182 -0.12194835 140.82590675 -0.10325813 C142.50635137 -0.09960438 144.1868274 -0.10258539 145.86724281 -0.11314392 C159.64933965 -0.19304788 172.34092217 1.62306855 184.70556641 8.21655273 C185.37273682 8.56274658 186.03990723 8.90894043 186.72729492 9.265625 C192.07232545 12.11218721 196.83932901 15.32349269 201.33056641 19.40405273 C202.07564453 20.05760742 202.82072266 20.71116211 203.58837891 21.38452148 C216.71663448 33.60047455 225.78124543 51.90346107 226.60731125 69.91551208 C226.75708592 75.29096087 226.73670099 80.66572009 226.71875 86.04272461 C226.72282212 88.10234352 226.72816758 90.16196024 226.73468018 92.22157288 C226.74828331 97.7814711 226.74308416 103.34120114 226.73354292 108.90110207 C226.72590989 114.73928888 226.73300201 120.57746199 226.73770142 126.41564941 C226.74314839 136.21698574 226.73599516 146.01825409 226.72167969 155.81958008 C226.70535527 167.12642919 226.71064452 178.43311597 226.7271589 189.73996115 C226.74080396 199.47454253 226.74267869 209.20907525 226.7348429 218.94366312 C226.73018297 224.74599268 226.7294951 230.54824611 226.73945236 236.35057068 C226.74816378 241.80737792 226.74202421 247.2639773 226.72476959 252.72076225 C226.72082697 254.71488031 226.7219003 256.70901607 226.72855759 258.70312691 C226.77042419 272.52567483 226.22910408 285.19671946 219.51806641 297.65405273 C219.16333252 298.33169678 218.80859863 299.00934082 218.44311523 299.70751953 C217.42778732 301.61965549 216.38748426 303.51465289 215.33056641 305.40405273 C214.60353516 306.70536133 214.60353516 306.70536133 213.86181641 308.03295898 C204.00461507 324.05091115 186.64821639 335.43543078 168.59115601 340.01551819 C160.27144173 341.86194979 152.13752526 341.83347423 143.66113281 341.80810547 C141.92002426 341.81382056 140.17891946 341.82078918 138.43782043 341.8289032 C133.74552916 341.84672451 129.05342601 341.84568709 124.36111116 341.83996081 C120.42758467 341.83685275 116.49409347 341.84297933 112.56057203 341.84899956 C103.27261012 341.86300713 93.98474026 341.86151513 84.69677734 341.85009766 C75.15083282 341.83862155 65.60516942 341.85269225 56.05926192 341.87949413 C47.82951413 341.90172589 39.5998541 341.90827169 31.37007844 341.90241772 C26.46973009 341.89906461 21.56956182 341.90135276 16.66923904 341.91866875 C12.05775849 341.93425548 7.44669099 341.93005381 2.83522606 341.9113636 C1.15478145 341.90770985 -0.52569459 341.91069086 -2.20611 341.92124939 C-15.98820684 342.00115334 -28.67978935 340.18503692 -41.04443359 333.59155273 C-42.04518921 333.07226196 -42.04518921 333.07226196 -43.06616211 332.54248047 C-48.40970065 329.69671283 -53.1837365 326.48908562 -57.66943359 322.40405273 C-58.42611328 321.72729492 -59.18279297 321.05053711 -59.96240234 320.35327148 C-73.0918764 307.97153967 -82.11959485 290.04182607 -82.9494133 271.88566589 C-83.09617967 266.51258505 -83.07556005 261.13995321 -83.05761719 255.76538086 C-83.06168931 253.70576195 -83.06703477 251.64614523 -83.07354736 249.58653259 C-83.0871505 244.02663437 -83.08195135 238.46690433 -83.07241011 232.9070034 C-83.06477707 227.06881658 -83.07186919 221.23064348 -83.0765686 215.39245605 C-83.08201558 205.59111973 -83.07486235 195.78985138 -83.06054688 185.98852539 C-83.04422245 174.68167628 -83.04951171 163.3749895 -83.06602609 152.06814432 C-83.07967115 142.33356294 -83.08154587 132.59903021 -83.07371008 122.86444235 C-83.06905016 117.06211279 -83.06836229 111.25985936 -83.07831955 105.45753479 C-83.08703097 100.00072755 -83.08089139 94.54412817 -83.06363678 89.08734322 C-83.05969416 87.09322516 -83.06076749 85.0990894 -83.06742477 83.10497856 C-83.10986638 69.0925892 -82.27775282 56.52942513 -75.98193359 43.71655273 C-75.63380615 42.9959668 -75.28567871 42.27538086 -74.92700195 41.53295898 C-71.90224589 35.48208651 -68.28956743 30.35923445 -63.66943359 25.40405273 C-62.99396484 24.63834961 -62.31849609 23.87264648 -61.62255859 23.08374023 C-45.09504536 5.28951979 -23.29673041 -0.06972415 0 0 Z " fill="#FEFEFE" transform="translate(82.66943359375,-0.404052734375)"/>
<path d="M0 0 C1.2065625 0.0309375 1.2065625 0.0309375 2.4375 0.0625 C3.10826489 2.83239964 3.77426317 5.60329742 4.4375 8.375 C4.72367188 9.55352539 4.72367188 9.55352539 5.015625 10.75585938 C5.19609375 11.51318359 5.3765625 12.27050781 5.5625 13.05078125 C5.81386719 14.09552612 5.81386719 14.09552612 6.0703125 15.16137695 C6.4375 17.0625 6.4375 17.0625 6.4375 20.0625 C8.03464844 19.99289063 8.03464844 19.99289063 9.6640625 19.921875 C29.4513022 19.31864745 45.93907512 25.86491681 61.01171875 38.6328125 C63.34748521 40.97234026 64.89108722 43.15586461 66.4375 46.0625 C45.68732223 46.83476542 29.86581778 44.08855348 13.3125 30.578125 C11.30450246 28.90762876 11.30450246 28.90762876 8.4375 27.0625 C8.61925781 27.66191406 8.80101562 28.26132813 8.98828125 28.87890625 C14.08420399 47.25036105 14.72755127 65.67924772 14.75 84.625 C14.75349457 85.56769745 14.75698914 86.5103949 14.7605896 87.48165894 C14.82844011 120.54998527 14.82844011 120.54998527 11.4375 133.0625 C12.4275 132.7325 13.4175 132.4025 14.4375 132.0625 C28.46715409 131.0497084 42.33904637 132.5766422 53.4375 142.0625 C59.51227667 147.82414385 63.13500098 155.42583471 63.67578125 163.71484375 C64.14591143 181.78944318 58.65160324 195.24177536 46.21484375 208.4453125 C30.55278181 223.20421756 14.0759711 223.81185435 -6.42578125 223.23730469 C-20.08597708 222.47604222 -31.32486766 215.11464477 -40.56640625 205.37890625 C-50.26566347 194.12321245 -54.74133434 183.17648932 -54.875 168.5 C-54.90400391 167.46552734 -54.93300781 166.43105469 -54.96289062 165.36523438 C-55.0521162 154.40421614 -52.02027693 145.1998825 -44.5625 137.0625 C-36.36255922 128.74679535 -28.02869274 125.98379263 -16.4375 125.75 C-8.49302486 125.78137009 -1.65938094 127.51405953 5.4375 131.0625 C12.4300508 90.56397661 8.84272676 48.00187774 -1.71972656 8.46289062 C-2.10016113 7.02913086 -2.10016113 7.02913086 -2.48828125 5.56640625 C-2.71942627 4.71892822 -2.95057129 3.8714502 -3.1887207 2.99829102 C-3.31206787 2.35947998 -3.43541504 1.72066895 -3.5625 1.0625 C-2.5625 0.0625 -2.5625 0.0625 0 0 Z " fill="#FE1601" transform="translate(148.5625,58.9375)"/>
<path d="M0 0 C1.2065625 0.0309375 1.2065625 0.0309375 2.4375 0.0625 C3.10826489 2.83239964 3.77426317 5.60329742 4.4375 8.375 C4.62828125 9.16068359 4.8190625 9.94636719 5.015625 10.75585938 C5.19609375 11.51318359 5.3765625 12.27050781 5.5625 13.05078125 C5.73007813 13.74727783 5.89765625 14.44377441 6.0703125 15.16137695 C6.4375 17.0625 6.4375 17.0625 6.4375 20.0625 C8.03464844 19.99289063 8.03464844 19.99289063 9.6640625 19.921875 C29.4513022 19.31864745 45.93907512 25.86491681 61.01171875 38.6328125 C63.34748521 40.97234026 64.89108722 43.15586461 66.4375 46.0625 C45.68732223 46.83476542 29.86581778 44.08855348 13.3125 30.578125 C11.30450246 28.90762876 11.30450246 28.90762876 8.4375 27.0625 C8.61925781 27.66191406 8.80101562 28.26132813 8.98828125 28.87890625 C14.08420399 47.25036105 14.72755127 65.67924772 14.75 84.625 C14.75349457 85.56769745 14.75698914 86.5103949 14.7605896 87.48165894 C14.82844011 120.54998527 14.82844011 120.54998527 11.4375 133.0625 C9.7875 132.7325 8.1375 132.4025 6.4375 132.0625 C5.09604772 128.66000846 5.72982762 125.8850695 6.41723633 122.37988281 C13.49385983 85.588989 7.82754801 44.20170575 -1.71972656 8.46289062 C-1.97334961 7.50705078 -2.22697266 6.55121094 -2.48828125 5.56640625 C-2.71942627 4.71892822 -2.95057129 3.8714502 -3.1887207 2.99829102 C-3.31206787 2.35947998 -3.43541504 1.72066895 -3.5625 1.0625 C-2.5625 0.0625 -2.5625 0.0625 0 0 Z " fill="#04BF4C" transform="translate(148.5625,58.9375)"/>
<path d="M0 0 C1.2065625 0.0309375 1.2065625 0.0309375 2.4375 0.0625 C5.86607143 13.63392857 5.86607143 13.63392857 5.4375 20.0625 C5.26473276 22.22963206 5.26473276 22.22963206 6.84375 24.3828125 C9.58148441 28.98596398 10.40419241 33.84297191 11.4375 39.0625 C11.57720215 39.74844238 11.7169043 40.43438477 11.86083984 41.14111328 C14.64403204 55.55396058 14.73267209 70.00099703 14.75 84.625 C14.75349457 85.56769745 14.75698914 86.5103949 14.7605896 87.48165894 C14.82844011 120.54998527 14.82844011 120.54998527 11.4375 133.0625 C9.7875 132.7325 8.1375 132.4025 6.4375 132.0625 C5.09604772 128.66000846 5.72982762 125.8850695 6.41723633 122.37988281 C13.49385983 85.588989 7.82754801 44.20170575 -1.71972656 8.46289062 C-1.97334961 7.50705078 -2.22697266 6.55121094 -2.48828125 5.56640625 C-2.71942627 4.71892822 -2.95057129 3.8714502 -3.1887207 2.99829102 C-3.31206787 2.35947998 -3.43541504 1.72066895 -3.5625 1.0625 C-2.5625 0.0625 -2.5625 0.0625 0 0 Z " fill="#0DBE3D" transform="translate(148.5625,58.9375)"/>
</svg>
